<svg xmlns="http://www.w3.org/2000/svg" xmlns:xlink="http://www.w3.org/1999/xlink" width="500" zoomAndPan="magnify" viewBox="0 0 375 374.999991" height="500" preserveAspectRatio="xMidYMid meet" version="1.2"><defs><clipPath id="9d4ffdc979"><path d="M 44.148438 97.597656 L 150.980469 97.597656 L 150.980469 278 L 44.148438 278 Z M 44.148438 97.597656 "/></clipPath><clipPath id="d3962e3f19"><path d="M 223.953125 97 L 330.785156 97 L 330.785156 277.375 L 223.953125 277.375 Z M 223.953125 97 "/></clipPath><clipPath id="40c0b83ba2"><path d="M 97.578125 223.96875 L 278 223.96875 L 278 330.804688 L 97.578125 330.804688 Z M 97.578125 223.96875 "/></clipPath><clipPath id="6c7fbd259e"><path d="M 97 44.167969 L 277.355469 44.167969 L 277.355469 151 L 97 151 Z M 97 44.167969 "/></clipPath></defs><g id="ba2d87e6a8"><g clip-rule="nonzero" clip-path="url(#9d4ffdc979)"><path style=" stroke:none;fill-rule:nonzero;fill:#f1f1f1;fill-opacity:1;" d="M 44.148438 277.082031 L 95.96875 187.484375 L 44.148438 97.890625 L 99.160156 97.890625 L 150.980469 187.484375 L 99.160156 277.082031 Z M 44.148438 277.082031 "/></g><g clip-rule="nonzero" clip-path="url(#d3962e3f19)"><path style=" stroke:none;fill-rule:nonzero;fill:#f1f1f1;fill-opacity:1;" d="M 330.785156 97.890625 L 278.964844 187.484375 L 330.785156 277.082031 L 275.773438 277.082031 L 223.953125 187.484375 L 275.773438 97.890625 Z M 330.785156 97.890625 "/></g><g clip-rule="nonzero" clip-path="url(#40c0b83ba2)"><path style=" stroke:none;fill-rule:nonzero;fill:#f1f1f1;fill-opacity:1;" d="M 277.0625 330.804688 L 187.464844 278.984375 L 97.871094 330.804688 L 97.871094 275.792969 L 187.464844 223.96875 L 277.0625 275.792969 Z M 277.0625 330.804688 "/></g><g clip-rule="nonzero" clip-path="url(#6c7fbd259e)"><path style=" stroke:none;fill-rule:nonzero;fill:#f1f1f1;fill-opacity:1;" d="M 97.871094 44.167969 L 187.464844 95.988281 L 277.0625 44.167969 L 277.0625 99.179688 L 187.464844 151 L 97.871094 99.179688 Z M 97.871094 44.167969 "/></g></g></svg>